<svg width="43" height="53" viewBox="0 0 43 53" fill="none" xmlns="http://www.w3.org/2000/svg">
<path d="M42.9805 2.45581C42.9805 0.91662 42.6298 0.565918 41.0711 0.565918H22.3086C17.5741 0.565918 12.8201 0.565918 8.08564 0.565918C3.09787 0.565918 0.0194835 3.66379 0 8.65155C0 20.2637 0 32.4214 0 44.7739C0 45.5337 0.0194835 46.3326 0.214318 47.0729C1.13004 50.7748 3.99411 52.879 8.04667 52.8985C12.8591 52.8985 17.6715 52.8985 22.4839 52.8985C22.5034 52.8985 22.5229 52.8985 22.5424 52.8985C26.9651 52.8985 41.0517 52.8985 41.0517 52.8985C42.6688 52.8985 43 52.5673 43 50.9501C42.9805 45.0272 42.9805 8.53465 42.9805 2.45581ZM8.82601 3.15722H40.3892V37.8183H8.82601V3.15722ZM2.55233 38.1885V33.3955C2.55233 25.0956 2.55233 16.7956 2.55233 8.51517C2.55233 6.0018 3.60444 4.36519 5.78659 3.50792L6.15677 3.37154L6.17626 3.76121C6.17626 3.85862 6.19574 3.95604 6.19574 4.05346C6.21522 4.26778 6.21522 4.46261 6.21522 4.65744V12.4313C6.21522 20.4585 6.21522 28.739 6.23471 36.9026C6.23471 37.5845 6.05936 38.0911 5.22157 38.3443C4.73448 38.4807 4.2474 38.7145 3.74082 38.9483C3.50702 39.0652 3.25374 39.1821 3.00045 39.2796L2.63027 39.4354L2.61078 39.0263C2.61078 38.9094 2.5913 38.812 2.5913 38.7145C2.57182 38.5197 2.55233 38.3638 2.55233 38.1885ZM40.3892 44.1115H7.81287V46.6638H40.3892V50.2682L40.1359 50.2877C40.0385 50.2877 39.9606 50.3072 39.8632 50.3072C39.6683 50.3267 39.493 50.3462 39.2981 50.3462H33.4531C29.4005 50.3462 25.3285 50.3462 21.2759 50.3462C16.8337 50.3462 12.3915 50.3462 7.96874 50.3462C6.25419 50.3462 4.79293 49.7617 3.81876 48.6901C2.92252 47.6964 2.49388 46.3131 2.64975 44.7934C2.86407 42.6502 4.61758 40.8382 6.72179 40.546C7.20888 40.4875 7.73493 40.4486 8.31944 40.4486C15.0023 40.4486 21.7046 40.4486 28.3874 40.4486H40.4282V44.1115H40.3892Z" fill="white"/>
<path d="M25.8741 12.7432H23.3413V19.2312H16.8533V21.764H23.3413V28.252H25.8741V21.764H32.3621V19.2312H25.8741V12.7432Z" fill="white"/>
</svg>
