<svg width="1086" height="1172" viewBox="0 0 1086 1172" fill="none" xmlns="http://www.w3.org/2000/svg" xmlns:xlink="http://www.w3.org/1999/xlink">
<path d="M692.231,1134.963C690.223,1134.691 688.423,1133.629 687.215,1132.003C669.605,1108.269 541.555,922.539 711.972,752.767C873.751,591.602 947.083,558.507 956.837,463.816C957.979,452.757 972.925,450.102 977.845,460.071C1014.605,534.577 1071.877,708.433 882.345,822.547C673.271,948.423 690.403,1086.413 700.515,1125.627C701.848,1130.811 697.533,1135.685 692.231,1134.963Z" fill="#669966"/>
<path d="M718.157,1138.493C713.401,1137.849 709.631,1134.179 708.897,1129.435C703.906,1097.137 691.651,976.456 780.559,944.452C878.434,909.223 957.452,1000.374 1029.398,929.031C1033.186,925.277 1039.548,928.548 1038.646,933.803C1032.238,971.071 1003.72,1057.395 876.819,1074.767C740.993,1093.358 725.706,1108.939 728.449,1128.269C729.296,1134.221 724.121,1139.303 718.157,1138.493Z" fill="#669966"/>
<g opacity="0.47">
<path d="M952.104,560.36C950.446,567.385 948.236,573.978 945.608,580.521C943.024,587.059 940.046,593.43 936.8,599.666C930.374,612.181 922.662,624.021 914.22,635.298C897.222,657.799 876.654,677.565 853.986,694.328C842.679,702.662 830.592,710.32 818.643,717.24C807.009,723.988 795.815,731.537 785.095,739.711C763.639,756.059 744.183,775.029 727.001,795.827C692.774,837.455 668.478,887.699 660.48,941.189C656.399,967.871 656.349,995.195 660.027,1022.103C663.659,1049.045 671.338,1075.425 681.467,1100.861C682.012,1102.215 681.358,1103.759 680.003,1104.309C678.699,1104.833 677.214,1104.233 676.614,1102.983C664.775,1077.849 655.926,1051.125 651.027,1023.529C648.523,1009.747 647.043,995.747 646.619,981.699C646.284,967.649 646.875,953.539 648.645,939.561C652.046,911.571 659.943,884.155 671.313,858.345C682.717,832.523 697.781,808.403 715.379,786.407C732.969,764.375 753.381,744.664 775.697,727.444C786.878,718.854 798.566,710.903 810.771,703.765C822.715,696.907 834.056,689.946 845.044,682.019C866.97,666.359 887.232,648.279 904.662,627.648C913.486,617.424 921.474,606.477 928.776,595.07C935.932,583.637 942.62,571.575 947.436,559.102L947.498,558.939C947.976,557.693 949.378,557.072 950.624,557.555C951.76,557.991 952.376,559.203 952.104,560.36Z" fill="#FFFFFF"/>
</g>
<g opacity="0.47">
<path d="M712.521,1116.586C712.937,1115.416 712.806,1114.33 712.769,1113.215L712.664,1109.885L712.584,1103.229C712.593,1098.796 712.689,1094.358 712.882,1089.93C713.276,1081.068 714.031,1072.219 715.218,1063.411C717.634,1045.826 721.618,1028.295 728.718,1011.779C735.739,995.381 746.366,979.708 761.796,969.467C769.479,964.438 778.152,960.86 787.136,959.04C796.111,957.149 805.338,956.868 814.359,957.66C849.714,961.762 884.373,968.54 919.121,974.046C936.429,976.626 953.981,978.932 970.975,976.609C975.197,975.988 979.359,975.07 983.397,973.77C987.397,972.373 991.327,970.737 994.997,968.586C1002.387,964.367 1008.883,958.6 1014.693,952.2L1014.709,952.179C1015.511,951.298 1016.873,951.231 1017.753,952.032C1018.623,952.821 1018.697,954.159 1017.935,955.043C1012.051,961.817 1005.327,968.078 997.471,972.797C993.571,975.195 989.361,977.062 985.071,978.655C980.737,980.153 976.285,981.239 971.793,981.994C953.695,984.644 935.753,982.392 918.247,979.989C900.692,977.49 883.354,974.235 865.957,971.421C848.615,968.598 831.068,965.868 813.797,963.842C805.271,963.016 796.652,963.217 788.34,964.895C780.015,966.501 772.054,969.718 764.933,974.277C750.577,983.42 740.164,997.964 733.088,1013.709C725.934,1029.532 721.681,1046.665 718.984,1063.952C717.655,1072.613 716.749,1081.345 716.199,1090.106C715.927,1094.484 715.751,1098.871 715.663,1103.258L715.616,1109.838L715.658,1113.126C715.688,1114.213 715.637,1115.332 716.174,1116.364C716.682,1117.346 716.3,1118.553 715.319,1119.061C714.337,1119.568 713.129,1119.187 712.622,1118.205C712.358,1117.694 712.337,1117.123 712.513,1116.62L712.521,1116.586Z" fill="#FFFFFF"/>
</g>
<path d="M527.781,13.242C474.511,12.822 420.777,21.269 373.238,40.993C262.577,86.909 168.657,208.403 205.413,332.503C217.353,372.815 211.079,417.293 251.24,434.811C272.969,444.289 332.146,449.933 354.647,442.461C414.449,422.605 453.755,368.265 421.231,308.005C410.817,288.709 397.333,271.079 388.341,251.081C379.349,231.085 375.247,207.342 384.415,187.421C402.417,148.317 462.209,135.886 500.983,137.06C546.747,138.444 588.217,161.079 612.843,199.915C643.539,248.313 651.315,307.179 646.823,363.357C642.017,423.469 616.669,469.377 578.685,515.489C545.979,555.193 509.965,593.301 488.233,639.921C468.277,682.719 461.757,730.141 460.855,776.963C460.679,786.037 415.547,871.561 415.741,897.689C415.769,901.381 466.927,913.609 470.619,913.651C489.881,913.865 544.437,914.477 564.517,914.701C568.647,914.747 572.049,911.445 572.095,907.315C573.525,780.199 612.625,659.007 711.603,573.635C747.617,542.571 786.403,517.273 814.409,478.063C854.323,422.179 874.015,367.179 868.331,298.209C863.139,235.215 842.401,172.193 801.341,123.316C757.217,70.791 692.625,37.986 625.493,23.831C594.189,17.23 561.077,13.502 527.781,13.242Z" fill="#1184BD"/>
<path d="M626.018,1057.198C626.018,1115.653 593.616,1167.365 535.165,1167.365C522.537,1167.365 479.591,1167.483 468.363,1163.427C427.615,1148.706 427.468,1117.398 427.468,1071.575C427.468,1013.119 447.205,955.633 505.66,955.633C564.116,955.633 626.018,998.742 626.018,1057.198Z" fill="#1184BD"/>
<path d="M477.169,-0.081C423.897,-0.501 370.165,7.946 322.625,27.67C211.959,73.586 118.044,195.08 154.796,319.18C166.736,359.492 194.34,410.24 234.502,427.758C256.231,437.236 281.529,436.606 304.029,429.138C363.831,409.282 403.137,354.942 370.613,294.682C360.199,275.386 346.715,257.756 337.724,237.758C328.732,217.758 324.63,194.019 333.798,174.098C351.799,134.994 411.591,122.563 450.365,123.737C496.129,125.121 537.599,147.756 562.227,186.592C592.923,234.99 600.697,293.856 596.205,350.034C591.399,410.146 566.051,456.054 528.067,502.166C495.363,541.87 459.349,579.978 437.615,626.598C417.661,669.396 411.139,716.818 410.237,763.64C410.061,772.714 413.119,867.482 413.311,893.61C413.341,897.3 416.311,900.282 420.001,900.324C439.263,900.538 493.819,901.15 513.899,901.372C518.031,901.42 521.431,898.118 521.477,893.988C522.909,766.872 562.009,645.68 660.985,560.308C696.999,529.242 735.785,503.944 763.793,464.736C803.707,408.85 823.397,353.852 817.715,284.882C812.523,221.888 791.783,158.866 750.725,109.989C706.591,57.46 641.999,24.655 574.871,10.5C543.571,3.907 510.461,0.179 477.169,-0.081Z" fill="#006699"/>
<path d="M482.688,1164.089C541.141,1164.089 588.527,1116.703 588.527,1058.25C588.527,999.797 541.141,952.411 482.688,952.411C424.234,952.411 376.849,999.797 376.849,1058.25C376.849,1116.703 424.234,1164.089 482.688,1164.089Z" fill="#006699"/>
<path d="M752.442,293.013L672.651,374.632L768.362,349.065L752.442,293.013Z" fill="#FF9900"/>
<path d="M165.459,1125.752C165.459,1125.752 162.767,1141.006 161.445,1156.104C160.93,1162.005 165.48,1167.13 171.398,1167.377C191.504,1168.216 234.517,1169.843 249.951,1169.155C252.27,1169.051 253.788,1166.677 252.928,1164.517C252.207,1162.709 250.819,1161.246 249.053,1160.432L178.007,1127.778L165.459,1125.752Z" fill="#3D3D3D"/>
<path d="M163.256,1116.792L165.42,1135.036C165.42,1135.036 177.863,1140.828 186.364,1134.306L181.21,1113.974L163.256,1116.792Z" fill="url(#pf_0_26_190)"/>
<path d="M164.88,773.774C163.944,778.539 159.859,1011.542 184.767,1115.96C185.174,1117.662 184.31,1119.42 182.687,1120.082C178.866,1121.642 171.38,1123.902 162.405,1124.204C159.625,1124.298 157.133,1122.494 156.349,1119.822C149.232,1095.598 115.114,974.216 110.664,858.266C105.69,728.702 110.664,853.854 110.664,853.854L113.579,773.766L164.88,773.774Z" fill="#3D3D3D"/>
<path d="M83.733,1133.71C83.733,1133.71 79.443,1141.41 75.291,1161.872C74.54,1165.567 77.124,1169.102 80.877,1169.472C87.516,1170.126 97.737,1170.965 105.928,1170.906C109.702,1170.881 112.646,1167.593 112.193,1163.847C111.288,1156.378 108.461,1144.123 99.733,1134.574L83.733,1133.71Z" fill="#3D3D3D"/>
<path d="M79.967,1110.243L85.025,1137.835C85.025,1137.835 90.028,1141.555 99.922,1138.859L97.506,1109.174L79.967,1110.243Z" fill="url(#pf_0_26_193)"/>
<path d="M66.299,780.926C45.929,903.859 70.72,1084.765 79.078,1120.175C79.59,1122.343 81.339,1124.003 83.537,1124.369C87.269,1124.985 93.413,1125.493 99.469,1123.731C101.558,1123.123 103.022,1121.245 103.106,1119.071C104.225,1090.443 102.208,914.709 121.19,845.257C122.15,841.738 124.302,838.668 127.275,836.554L164.115,810.363L166.938,768.029L66.299,780.926Z" fill="#3D3D3D"/>
<path d="M196.098,547.993C135.055,546.987 67.696,564.023 67.696,564.023C49.498,670.197 64.513,792.66 64.513,792.66C111.77,805.054 165.084,785.082 165.084,785.082C172.939,740.702 209.586,615.81 209.586,615.81C239.414,612.106 263.982,603.505 284.218,592.126C268.784,574.235 261.508,551.47 258.349,538.016C236.767,544.722 214.929,548.304 196.098,547.993Z" fill="#FF9900"/>
<path d="M376.418,458.073C370.421,450.83 362.83,454.257 362.83,454.257C353.846,492.204 306.744,522.971 258.354,538.01C261.516,551.469 268.788,574.233 284.222,592.121C364.532,546.968 376.418,458.073 376.418,458.073Z" fill="url(#pf_0_26_197)"/>
<path d="M374.955,459.913C375.584,461.909 368.316,464.946 364.038,456.788C363.887,452.88 361.509,436.129 363.845,432.942C376.289,415.977 400.412,394.709 400.412,394.709C404.489,398.731 401.129,402.686 401.129,402.686L389.424,414.878C391.873,419.303 394.86,423.035 396.256,428.387C397.317,432.438 396.667,436.771 394.62,440.457C392.565,444.156 389.764,448.971 387.113,452.733C382.11,459.863 374.955,459.913 374.955,459.913Z" fill="url(#pf_0_26_199)"/>
<path d="M384.314,422.79L373.649,431.832L370.302,440.832L379.81,451.38C379.81,451.38 383.006,433.518 385.384,429.656C387.762,425.793 386.529,423.922 384.314,422.79Z" fill="url(#pf_0_26_200)"/>
<path d="M91.113,623.123L67.699,564.013C67.699,564.013 10.677,602.757 1.304,651.876C12.078,652.669 31.681,655.471 50.872,665.163C55.087,641.97 91.113,623.123 91.113,623.123Z" fill="#FEB241"/>
<path d="M140.942,678.742C140.942,678.742 76.925,714.924 55.322,684.031C50.839,677.614 49.765,671.239 50.868,665.162C31.677,655.474 12.074,652.668 1.3,651.876C-1.527,666.685 -0.034,682.433 8.669,698.353C46.506,767.566 149.41,694.528 149.41,694.528L140.942,678.742Z" fill="url(#pf_0_26_202)"/>
<path d="M133.25,724.521L168.19,602.506C168.588,601.122 169.767,600.112 171.197,599.944C177.526,599.206 195.87,597.134 217.05,595.339C242.561,593.179 272.183,591.434 289.886,592.919C292.403,593.129 293.925,595.792 292.805,598.057C282.74,618.422 241.328,701.27 220.594,728.409C219.906,729.307 218.845,729.835 217.712,729.822L136.647,729.068C134.29,729.051 132.6,726.79 133.25,724.521Z" fill="#DAE3FE"/>
<path d="M220.67,584.76L246.001,580.541C247.352,580.314 248.455,581.606 248.027,582.902L245.519,590.502C245.301,591.164 244.722,591.642 244.034,591.735L219.659,594.989C218.397,595.157 217.357,594.012 217.65,592.775L219.202,586.14C219.365,585.427 219.944,584.882 220.67,584.76Z" fill="#CDCDF5"/>
<path d="M201.708,606.209L203.796,595.338C204.006,594.248 204.908,593.426 206.011,593.312L257.173,588.12C258.896,587.944 260.272,589.525 259.869,591.207L256.615,604.753C256.355,605.836 255.411,606.62 254.3,606.674L204.304,609.191C202.676,609.275 201.401,607.807 201.708,606.209Z" fill="#CDCDF5"/>
<path d="M141.688,695.044C141.688,695.044 136.823,675.031 138.786,667.93C140.748,660.83 144.552,651.7 157.231,653.73C169.909,655.76 184.865,661.098 184.865,661.098C184.865,661.098 184.11,670.346 174.472,667.364L180.448,671.986C180.448,671.986 179.593,679.393 171.457,675.433L177.013,681.565C177.013,681.565 173.52,687.646 167.531,683.746C161.542,679.85 158.673,697.456 141.688,695.044Z" fill="url(#pf_0_26_207)"/>
<path d="M134.268,498.428L114.845,554.598C114.522,555.529 114.904,556.561 115.768,557.035C121.061,559.962 140.139,568.425 163.126,553.847C165.521,552.329 167.152,549.855 167.513,547.04L173.804,498.424L134.268,498.424L134.268,498.428Z" fill="url(#pf_0_26_208)"/>
<path d="M176.529,446.414C176.529,446.414 197.86,486.563 195.125,502.781C192.391,518.999 165.956,517.833 142.873,504.664L126.743,461.311L176.529,446.414Z" fill="url(#pf_0_26_210)"/>
<path d="M143.893,483.376C144.832,482.961 145.176,481.812 144.614,480.956C142.903,478.348 139.703,473.021 138.679,468.358C138.679,468.358 134.846,465.9 148.439,462.65C162.031,459.395 182.305,454.346 186.566,442.775C190.722,431.493 179.805,403.125 162.392,425.73C161.729,426.59 160.433,426.611 159.771,425.747C156.915,422.031 149.412,414.319 138.99,418.995C129.239,423.369 128.14,430.516 128.274,434.118C128.312,435.179 127.364,436.001 126.324,435.804C121.396,434.865 109.565,434.055 104.041,446.193C99.491,456.191 102.448,461.849 105.14,464.617C106.013,465.514 105.631,466.991 104.436,467.355C101.194,468.349 97.012,471.096 97.432,478.687C98.011,489.181 109.745,488.258 113.084,487.78C113.633,487.7 114.182,487.889 114.552,488.3C117.416,491.471 130.321,504.929 144.287,506.552C145.495,506.691 146.434,505.5 146.036,504.346L139.992,486.773C139.711,485.956 140.101,485.062 140.89,484.714L143.893,483.376Z" fill="#000000"/>
<path d="M146.326,485.87C146.326,485.87 131.139,475.452 130.028,484.226C128.916,492.999 143.704,496.933 151.027,493.662L146.326,485.87Z" fill="url(#pf_0_26_212)"/>
<path d="M1066.22,354.52L741.629,354.52C730.817,354.52 722.056,345.755 722.056,334.947L722.056,198.383C722.056,187.571 730.822,178.81 741.629,178.81L1066.22,178.81C1077.032,178.81 1085.794,187.575 1085.794,198.383L1085.794,334.947C1085.794,345.759 1077.028,354.52 1066.22,354.52Z" fill="#FF9900"/>
<path d="M1042.191,221.53L765.653,221.53C762.843,221.53 760.566,219.253 760.566,216.443C760.566,213.633 762.843,211.356 765.653,211.356L1042.191,211.356C1045.001,211.356 1047.278,213.633 1047.278,216.443C1047.273,219.253 1044.997,221.53 1042.191,221.53ZM885.484,255.011L765.65,255.011C762.84,255.011 760.563,252.734 760.563,249.924C760.563,247.114 762.84,244.836 765.65,244.836L885.484,244.836C888.294,244.836 890.571,247.114 890.571,249.924C890.571,252.734 888.294,255.011 885.484,255.011ZM922.355,255.011L1042.189,255.011C1044.994,255.011 1047.273,252.734 1047.277,249.924C1047.277,247.114 1044.999,244.836 1042.189,244.836L922.355,244.836C919.545,244.836 917.267,247.114 917.267,249.924C917.267,252.734 919.545,255.011 922.355,255.011ZM1042.191,288.492L765.653,288.492C762.843,288.492 760.566,286.214 760.566,283.404C760.566,280.594 762.843,278.317 765.653,278.317L1042.191,278.317C1045.001,278.317 1047.278,280.594 1047.278,283.404C1047.273,286.219 1044.997,288.492 1042.191,288.492ZM765.65,321.976L967.699,321.976C970.508,321.976 972.785,319.698 972.785,316.888C972.785,314.078 970.508,311.801 967.699,311.801L765.65,311.801C762.84,311.801 760.563,314.078 760.563,316.888C760.563,319.698 762.84,321.976 765.65,321.976Z" clip-rule="evenodd" fill-rule="evenodd" fill="#FFFFFF"/>
<path d="M1067.585,59.944L1067.327,66.655C1067.327,66.655 1016.479,73.108 986.538,103.307L974.149,106.92C932.851,97.886 886.649,120.6 886.649,120.6L882.777,115.18C917.622,90.917 971.826,99.177 971.826,99.177L976.73,93.24L984.215,95.563C984.215,95.563 1025.255,58.912 1067.585,59.944Z" fill="#669966"/>
<path d="M1057.519,14L1061.132,43.167C1013.898,41.618 984.215,95.305 984.215,95.305L971.826,99.177C971.826,99.177 917.622,70.268 878.906,97.628L866,71.043C866,71.043 925.624,44.199 975.697,89.111C992.991,24.066 1057.519,14 1057.519,14Z" fill="url(#pf_0_26_380)"/>
<defs>
<linearGradient id="pf_0_26_190" x1="163.255" y1="1125.692" x2="186.365" y2="1125.692" gradientUnits="userSpaceOnUse">
<stop stop-color="#FEBBBA"/>
<stop offset="1" stop-color="#FF928E"/>
</linearGradient>
<linearGradient id="pf_0_26_193" x1="79.966" y1="1124.505" x2="99.919" y2="1124.505" gradientUnits="userSpaceOnUse">
<stop stop-color="#FEBBBA"/>
<stop offset="1" stop-color="#FF928E"/>
</linearGradient>
<linearGradient id="pf_0_26_197" x1="358.21" y1="385.228" x2="317.436" y2="501.726" gradientUnits="userSpaceOnUse">
<stop stop-color="#FEBBBA"/>
<stop offset="1" stop-color="#FF928E"/>
</linearGradient>
<linearGradient id="pf_0_26_199" x1="393.057" y1="397.424" x2="352.283" y2="513.922" gradientUnits="userSpaceOnUse">
<stop stop-color="#FEBBBA"/>
<stop offset="1" stop-color="#FF928E"/>
</linearGradient>
<linearGradient id="pf_0_26_200" x1="361.736" y1="471.857" x2="392.45" y2="409.9" gradientUnits="userSpaceOnUse">
<stop stop-color="#FEBBBA"/>
<stop offset="1" stop-color="#FF928E"/>
</linearGradient>
<linearGradient id="pf_0_26_202" x1="0.001" y1="690.016" x2="149.412" y2="690.016" gradientUnits="userSpaceOnUse">
<stop stop-color="#FEBBBA"/>
<stop offset="1" stop-color="#FF928E"/>
</linearGradient>
<linearGradient id="pf_0_26_207" x1="138.319" y1="674.358" x2="184.866" y2="674.358" gradientUnits="userSpaceOnUse">
<stop stop-color="#FEBBBA"/>
<stop offset="1" stop-color="#FF928E"/>
</linearGradient>
<linearGradient id="pf_0_26_208" x1="114.731" y1="530.287" x2="173.803" y2="530.287" gradientUnits="userSpaceOnUse">
<stop stop-color="#FEBBBA"/>
<stop offset="1" stop-color="#FF928E"/>
</linearGradient>
<linearGradient id="pf_0_26_210" x1="187.852" y1="492.71" x2="122.901" y2="453.095" gradientUnits="userSpaceOnUse">
<stop stop-color="#FEBBBA"/>
<stop offset="1" stop-color="#FF928E"/>
</linearGradient>
<linearGradient id="pf_0_26_212" x1="170.793" y1="507.486" x2="112.356" y2="471.844" gradientUnits="userSpaceOnUse">
<stop stop-color="#FEBBBA"/>
<stop offset="1" stop-color="#FF928E"/>
</linearGradient>
<linearGradient id="pf_0_26_380" x1="958.848" y1="32.696" x2="998.394" y2="165.387" gradientUnits="userSpaceOnUse">
<stop stop-color="#FFFFFF"/>
<stop offset="0.59" stop-color="#E5C3A7"/>
</linearGradient>
</defs>
</svg>
