<svg width="58" height="57" viewBox="0 0 58 57" fill="none" xmlns="http://www.w3.org/2000/svg">
<path d="M49.5336 37.05C46.5648 39.4992 43.5961 41.9781 40.6273 44.4274C40.4047 44.6055 40.1078 44.6946 39.8258 44.8281C40.0039 44.0563 40.2414 43.418 40.2859 42.7649C40.4344 40.1969 38.4305 38.0891 35.8477 38.0742C32.4188 38.0594 28.9898 38.0594 25.5609 38.0742C25.175 38.0742 24.8781 37.9703 24.5664 37.718C23.75 37.0797 22.9336 36.4266 22.043 35.9219C19.1781 34.2891 16.2836 34.3633 13.4336 36.011C12.8695 36.3375 12.3203 36.7235 11.7414 37.0946C10.6875 35.3281 9.12891 34.675 7.13984 34.7344C5.26953 34.7938 3.39922 34.7641 1.51406 34.7344C0.83125 34.7196 0.326562 34.9274 0 35.5211C0 42.6758 0 49.8453 0 57C3.81484 57 7.64453 57 11.4594 57C12.0531 56.6735 12.3055 56.1688 12.2461 55.486C12.2016 54.9664 12.2312 54.432 12.2312 53.8531C13.8641 54.1203 15.4227 54.3727 16.9664 54.625C17.7086 54.7438 18.2727 54.3727 18.3766 53.7195C18.4805 53.0664 18.0945 52.5617 17.3672 52.4281C16.6695 52.3094 15.9719 52.2055 15.2891 52.0867C14.2797 51.9235 13.2555 51.7453 12.2312 51.5821C12.2312 51.3149 12.2312 51.1219 12.2312 50.9141C12.2312 47.8414 12.2312 44.7539 12.2312 41.6813C12.2312 39.2914 12.2313 39.2914 14.2945 38.0742C14.6805 37.8516 15.0664 37.6438 15.482 37.4656C16.4766 37.05 17.5008 36.8571 18.5844 37.0352C20.5141 37.3617 22.0578 38.386 23.4234 39.7071C23.8539 40.1227 24.2992 40.3156 24.9078 40.3156C28.5 40.3008 32.107 40.3008 35.6992 40.3008C36.768 40.3008 37.5844 40.8352 37.9258 41.7406C38.475 43.2102 37.4062 44.7391 35.8031 44.7539C32.6711 44.7688 29.5391 44.7539 26.3922 44.7539C25.5758 44.7539 25.0711 45.1695 25.0562 45.8375C25.0414 46.5352 25.5609 46.9805 26.407 46.9805C31.0828 46.9805 35.7586 46.9953 40.4344 46.9656C40.8055 46.9656 41.2359 46.8024 41.5328 46.5649C42.6461 45.7039 43.7148 44.7836 44.7984 43.8781C46.8766 42.1563 48.9547 40.4047 51.0625 38.6977C52.443 37.5696 54.3578 38.2227 54.7289 39.9149C54.9516 40.9094 54.5211 41.6813 53.7492 42.2899C49.6227 45.511 45.5258 48.7617 41.3844 51.9383C38.5195 54.15 35.2391 55.0703 31.6172 54.6695C30.2219 54.5063 28.8266 54.2391 27.4461 54.0461C26.793 53.9422 26.2438 54.343 26.1398 54.9664C26.0359 55.575 26.407 56.0797 27.0453 56.2281C27.268 56.2727 27.4906 56.3024 27.6984 56.3321C29.0492 56.5547 30.4 56.7774 31.7508 57C32.6414 57 33.532 57 34.4227 57C35.1945 56.8516 35.9813 56.7328 36.7531 56.5547C38.9797 56.0352 41.0133 55.0703 42.8094 53.6602C46.8914 50.4836 50.9438 47.2774 55.0258 44.1156C56.0648 43.3141 56.6734 42.3047 57.0148 41.0727C57.0148 40.6274 57.0148 40.1821 57.0148 39.7367C56.8516 39.2766 56.7477 38.8016 56.5398 38.386C55.2188 35.7289 51.9086 35.0906 49.5336 37.05ZM10.0195 51.0625C10.0195 52.2649 10.0195 53.4672 10.0195 54.7289C7.43672 54.7289 4.86875 54.7289 2.27109 54.7289C2.27109 48.836 2.27109 42.943 2.27109 36.9758C4.20078 36.9758 6.08594 36.9461 7.98594 36.9906C9.18828 37.0203 10.0195 38.0446 10.0344 39.336C10.0195 43.2399 10.0195 47.1438 10.0195 51.0625Z" fill="white"/>
<path d="M34.2149 28.7375C40.7906 27.6688 45.7188 22.3102 46.2531 15.4672C46.7727 8.84688 42.6461 2.95391 36.7086 0.875781C35.5359 0.460156 34.2742 0.282031 33.057 0C32.2406 0 31.4242 0 30.6078 0C30.4594 0.0296875 30.3258 0.0890625 30.1774 0.103906C22.1617 0.964844 16.3133 8.53516 17.5008 16.5211C18.7031 24.5813 26.1844 30.0438 34.2149 28.7375ZM32.0477 8.90625C33.0867 9.01016 33.9328 9.84141 34.0516 10.8953C34.0664 11.0734 34.0664 11.2664 34.1258 11.4445C34.2891 11.9641 34.8086 12.2906 35.3281 12.2164C35.8774 12.1422 36.2633 11.682 36.293 11.0883C36.3672 9.39609 35.1797 7.64453 33.4875 6.99141C33.0719 6.82812 32.9383 6.63516 32.9531 6.20469C32.9828 4.91328 32.968 3.62188 32.968 2.31562C37.8664 2.52344 43.8633 6.84297 44.0859 14.0719C44.3086 21.3305 38.5047 26.2586 32.968 26.6C32.968 25.1602 32.9531 23.75 32.9828 22.3398C32.9828 22.1914 33.2797 22.0133 33.4578 21.9391C36.2633 20.8109 37.1984 17.3672 35.3133 15.007C34.4227 13.8938 33.25 13.3742 31.825 13.3297C30.3258 13.2852 29.3164 11.9195 29.7024 10.5242C29.9844 9.5 30.9641 8.81719 32.0477 8.90625ZM30.7266 2.33047C30.7266 3.77031 30.7414 5.15078 30.6969 6.54609C30.6969 6.70937 30.4 6.90234 30.1922 6.99141C28.5445 7.67422 27.4164 9.24766 27.3719 10.9844C27.3274 12.8102 28.3516 14.5023 30.0289 15.1852C30.6375 15.4375 31.3203 15.5117 31.9734 15.5859C33.0274 15.7047 33.8883 16.4914 34.0367 17.5305C34.1703 18.5695 33.532 19.5938 32.5375 19.9203C31.5281 20.2617 30.4149 19.8461 29.9102 18.9109C29.7469 18.5992 29.6578 18.2133 29.6133 17.857C29.5242 17.1445 29.0641 16.6695 28.4406 16.7141C27.8024 16.7437 27.3719 17.2633 27.3867 17.9758C27.4016 19.6977 28.5594 21.3305 30.2664 21.9688C30.6227 22.1023 30.7414 22.2508 30.7414 22.6367C30.7117 23.9578 30.7266 25.2641 30.7266 26.6594C28.1734 26.4367 25.9617 25.5016 24.032 23.8984C21.3305 21.6422 19.8164 18.7328 19.6234 15.2297C19.193 7.70391 25.175 2.64219 30.7266 2.33047Z" fill="white"/>
<path d="M8.68364 5.56641C9.33677 5.56641 10.0047 5.56641 10.643 5.56641C10.6727 5.68516 10.6876 5.71484 10.6876 5.74453C10.6876 6.35313 10.6876 6.96172 10.6876 7.58516C10.6876 8.40156 11.118 8.90625 11.8008 8.90625C12.4688 8.90625 12.9141 8.40156 12.9141 7.58516C12.9141 6.91719 12.9141 6.26406 12.9141 5.56641C13.3743 5.56641 13.7602 5.56641 14.1461 5.56641C15.7196 5.56641 16.2391 5.29922 16.254 4.46797C16.2688 3.63672 15.7196 3.33984 14.1758 3.33984C13.7751 3.33984 13.3743 3.33984 12.929 3.33984C12.929 2.68672 12.8993 2.09297 12.9438 1.51406C12.9883 0.83125 12.7508 0.326562 12.1571 0C11.9344 0 11.7118 0 11.4891 0C10.8805 0.326562 10.6579 0.83125 10.7024 1.51406C10.7469 2.10781 10.7172 2.71641 10.7172 3.31016C10.5985 3.325 10.554 3.33984 10.5243 3.33984C9.91568 3.33984 9.30708 3.33984 8.68364 3.33984C7.88208 3.33984 7.37739 3.78516 7.37739 4.46797C7.36255 5.13594 7.86724 5.56641 8.68364 5.56641Z" fill="white"/>
<path d="M55.4859 23.3641C54.8922 23.4086 54.2836 23.3789 53.6602 23.3789C53.6602 22.6367 53.6602 21.9984 53.6602 21.3453C53.6602 20.5438 53.2148 20.0391 52.532 20.0391C51.8641 20.0539 51.4336 20.5586 51.4336 21.3602C51.4336 22.0133 51.4336 22.6812 51.4336 23.3641C50.7062 23.3641 50.068 23.3641 49.4148 23.3641C48.5984 23.3641 48.0938 23.7945 48.0938 24.4773C48.0938 25.1453 48.5984 25.5906 49.4148 25.5906C50.0828 25.5906 50.7359 25.5906 51.4336 25.5906C51.4336 26.2883 51.4336 26.9117 51.4336 27.5352C51.4336 28.3961 51.8492 28.9156 52.532 28.9156C53.2297 28.9305 53.6602 28.3961 53.6602 27.5055C53.6602 26.882 53.6602 26.2586 53.6602 25.5906C54.3133 25.5906 54.8922 25.5609 55.4859 25.6055C56.1687 25.65 56.6734 25.4125 57 24.8187C57 24.5961 57 24.3734 57 24.1508C56.6586 23.557 56.1687 23.3195 55.4859 23.3641Z" fill="white"/>
<path d="M22.2656 53.2148C21.6718 53.2148 21.1671 53.7047 21.1523 54.2984C21.1375 54.907 21.6421 55.4414 22.2656 55.4266C22.8742 55.4266 23.3937 54.8922 23.3789 54.2836C23.3492 53.7047 22.8593 53.2148 22.2656 53.2148Z" fill="white"/>
</svg>
