<svg width="64" height="64" viewBox="0 0 64 64" fill="none" xmlns="http://www.w3.org/2000/svg">
<path d="M45.3612 38.6533C42.5084 38.6479 39.6557 38.6533 36.803 38.6533C36.4617 38.6533 36.4617 38.6533 36.4617 38.2999C36.4617 36.0245 36.4564 33.7491 36.4617 31.4736C36.4617 30.5581 36.3018 29.6854 35.9338 28.8502C35.1287 27.0138 33.0971 25.5735 30.9909 25.8145C30.0151 25.9269 29.2526 26.3873 28.8207 27.3243C28.5967 27.8062 28.5914 28.3094 28.5754 28.8127C28.4954 30.9811 27.9302 33.0156 26.8477 34.9002C26.1386 36.1369 25.2001 37.1221 23.8457 37.6735C23.3392 37.877 22.8539 38.1554 22.3794 38.4338C22.0061 38.6533 21.6648 38.921 21.3076 39.1726C21.2863 39.1512 21.2649 39.1352 21.2543 39.1137C20.6144 38.0965 19.6759 37.6468 18.4922 37.6521C17.5964 37.6575 16.6952 37.6521 15.7994 37.6575C15.6554 37.6575 15.5648 37.6253 15.4955 37.4754C14.9463 36.2868 13.9971 35.6926 12.7067 35.6818C10.1313 35.6658 7.55048 35.6765 4.97503 35.6765C3.23673 35.6765 1.941 36.9829 1.93567 38.7283C1.93567 45.9401 1.93567 53.1465 1.93567 60.3583C1.93567 62.1251 3.22073 63.4101 4.98569 63.4101C7.58248 63.4101 10.1739 63.4208 12.7707 63.4047C14.0238 63.3993 14.9356 62.7944 15.4795 61.6593C15.5701 61.4719 15.6714 61.4237 15.8581 61.4237C16.8072 61.4344 17.7617 61.4291 18.7108 61.4291C19.3933 61.4291 20.0172 61.231 20.5344 60.7866C20.865 60.4975 21.1316 60.1388 21.4462 59.7908C21.4409 59.7908 21.4889 59.8068 21.5369 59.8336C22.2247 60.2726 22.9819 60.444 23.7924 60.444C29.6578 60.4386 35.5232 60.444 41.3887 60.4386C42.5564 60.4386 43.4736 59.9407 44.1828 59.0252C44.8013 58.2274 45.1479 57.3012 45.4358 56.3535C46.5396 52.7396 47.6487 49.131 48.7258 45.5064C48.9764 44.6551 49.1897 43.777 49.275 42.8936C49.4883 40.6075 47.6594 38.6587 45.3612 38.6533ZM13.7785 59.9407C13.7785 60.1174 13.7732 60.2994 13.7625 60.4761C13.7358 61.0115 13.3679 61.3916 12.8347 61.4344C12.7281 61.4452 12.6214 61.4398 12.5148 61.4398C10.0513 61.4398 7.59314 61.4398 5.12966 61.4398C4.26584 61.4398 3.89792 61.0704 3.89792 60.1977C3.89792 53.093 3.89792 45.9936 3.89792 38.8889C3.89792 38.0108 4.27118 37.636 5.15099 37.636C7.6198 37.636 10.0939 37.636 12.5628 37.636C13.3733 37.636 13.7305 37.9733 13.7732 38.7871C13.7785 38.9049 13.7785 39.0174 13.7785 39.1352C13.7785 42.6045 13.7785 46.0793 13.7785 49.5486C13.7838 53.018 13.7838 56.4767 13.7785 59.9407ZM19.7026 58.3131C19.7026 59.0519 19.3027 59.4481 18.5615 59.4481C17.719 59.4481 16.8712 59.4428 16.0287 59.4535C15.8154 59.4535 15.7408 59.4106 15.7408 59.1751C15.7461 52.7557 15.7461 46.3309 15.7461 39.9115C15.7461 39.8312 15.7461 39.7509 15.7461 39.6438C15.8634 39.6384 15.9434 39.6277 16.0234 39.6277C16.8765 39.6277 17.7297 39.6224 18.5828 39.6277C19.3027 39.6331 19.7026 40.04 19.7026 40.7628C19.7026 46.6147 19.7026 52.4612 19.7026 58.3131ZM47.3128 42.8187C47.2648 43.1453 47.2168 43.4719 47.1261 43.7878C46.4489 46.197 45.7824 48.6117 45.0679 51.0103C44.524 52.8306 43.9268 54.6295 43.3189 56.4285C43.1536 56.9103 42.8924 57.3708 42.6151 57.7991C42.3271 58.2488 41.8739 58.463 41.3194 58.463C38.376 58.4576 35.4379 58.463 32.4946 58.463C29.5618 58.463 26.6291 58.463 23.6964 58.463C22.5127 58.463 21.6648 57.6117 21.6648 56.4231C21.6648 51.9365 21.6702 47.4499 21.6595 42.9579C21.6595 41.8282 22.1181 40.9448 23.0512 40.3452C23.6538 39.9543 24.2936 39.617 24.9495 39.3225C26.3305 38.7015 27.3596 37.7003 28.1808 36.4582C29.4019 34.6003 30.1004 32.5498 30.399 30.3546C30.4843 29.7282 30.511 29.0965 30.5483 28.4647C30.575 28.0364 30.7403 27.8276 31.1722 27.774C31.9027 27.683 32.5372 27.94 33.1024 28.3737C34.0729 29.1179 34.4781 30.1458 34.4835 31.3398C34.4995 34.0328 34.4888 36.7259 34.4888 39.4243C34.4888 40.2327 34.8781 40.6236 35.6779 40.6236C38.8932 40.6236 42.1085 40.6182 45.3292 40.6236C46.5396 40.6289 47.4781 41.6729 47.3128 42.8187Z" fill="white"/>
<path d="M26.4639 9.46328C26.5972 9.61319 26.6559 9.75775 26.6399 9.96655C26.5226 11.198 26.4213 12.4347 26.3039 13.7679C26.2666 14.0302 26.3519 14.3407 26.6185 14.5977C26.9705 14.935 27.3651 14.919 27.781 14.7477C28.9541 14.2658 30.1271 13.7679 31.3056 13.2967C31.4442 13.2432 31.6415 13.2378 31.7748 13.2914C32.9479 13.7625 34.121 14.223 35.2674 14.7423C35.9606 15.0582 36.883 14.6727 36.7764 13.6501C36.6431 12.408 36.5524 11.1658 36.4565 9.91837C36.4458 9.78987 36.5045 9.61855 36.5898 9.51682C37.4269 8.54775 38.2801 7.58939 39.1226 6.62032C39.6825 5.97249 39.4105 5.11586 38.584 4.92847C37.3309 4.63935 36.0779 4.35024 34.8195 4.06648C34.6435 4.029 34.5209 3.95404 34.4249 3.79343C33.7584 2.70122 33.0918 1.61971 32.4253 0.532857C32.2334 0.216973 31.9614 0.0295836 31.5828 0.00281375C31.1349 -0.0293101 30.8523 0.216973 30.6337 0.570335C29.9672 1.65184 29.3113 2.73334 28.6394 3.80413C28.5701 3.91657 28.4262 4.02365 28.2982 4.05577C27.0558 4.35559 25.808 4.634 24.5603 4.92311C23.6592 5.13192 23.3766 5.96178 23.9898 6.66315C24.8109 7.59474 25.6321 8.53169 26.4639 9.46328ZM28.9167 5.95108C29.5139 5.844 29.9298 5.56559 30.2231 5.02484C30.575 4.37701 30.991 3.7613 31.3749 3.12953C31.4229 3.05458 31.4709 2.98498 31.5402 2.8886C31.6095 2.99033 31.6628 3.06529 31.7161 3.14559C32.148 3.85232 32.5853 4.55369 33.0119 5.26577C33.2145 5.59771 33.4918 5.79581 33.8703 5.88147C34.6595 6.05816 35.4433 6.24019 36.2325 6.42222C36.3338 6.44364 36.4351 6.47576 36.5791 6.51324C36.4938 6.61497 36.4351 6.69528 36.3658 6.77559C35.8486 7.36452 35.3367 7.95881 34.8088 8.53704C34.5049 8.86899 34.3929 9.23306 34.4462 9.68815C34.5369 10.5127 34.5955 11.3372 34.6702 12.167C34.6755 12.2099 34.6648 12.2527 34.6648 12.3277C34.5849 12.3062 34.5209 12.2955 34.4569 12.2688C33.6997 11.9582 32.9425 11.6531 32.196 11.3211C31.7535 11.123 31.3375 11.1177 30.8896 11.3158C30.1431 11.6477 29.386 11.9475 28.6288 12.2634C28.5755 12.2848 28.5168 12.3062 28.3995 12.3437C28.4368 11.8779 28.4688 11.4657 28.5061 11.0481C28.5488 10.5501 28.5968 10.0522 28.6448 9.55965C28.6768 9.20094 28.5808 8.89041 28.3408 8.62271C27.797 8.007 27.2584 7.39665 26.7199 6.78094C26.6505 6.70599 26.5865 6.62032 26.4959 6.50789C27.3331 6.30444 28.1169 6.09563 28.9167 5.95108Z" fill="white"/>
<path d="M51.3921 8.36023C50.5709 8.1782 49.7444 7.99081 48.9232 7.81412C48.7473 7.77665 48.6246 7.69634 48.5287 7.54107C48.1127 6.86647 47.6542 6.21864 47.2703 5.52263C46.9023 4.85873 45.8999 4.68741 45.42 5.53333C45.0254 6.22935 44.5775 6.8986 44.1403 7.56784C44.0709 7.67492 43.9376 7.76594 43.815 7.79806C42.9885 7.99616 42.1513 8.17284 41.3195 8.36023C40.445 8.55833 40.1731 9.42567 40.781 10.0949C41.3302 10.6999 41.8847 11.3049 42.4233 11.9206C42.5033 12.0116 42.5619 12.1723 42.5513 12.2954C42.4873 13.1199 42.3966 13.9444 42.3326 14.7743C42.322 14.9349 42.3593 15.1169 42.4233 15.2615C42.6739 15.813 43.1751 15.9896 43.7883 15.7487C44.5668 15.4435 45.34 15.133 46.1078 14.8064C46.2785 14.7368 46.4171 14.7368 46.5877 14.8064C47.3769 15.133 48.1661 15.4489 48.9606 15.7648C49.3285 15.9093 49.6751 15.8719 49.995 15.6363C50.3896 15.3418 50.3896 14.9296 50.3469 14.5012C50.2776 13.7624 50.203 13.0289 50.155 12.29C50.1443 12.1669 50.203 12.0063 50.283 11.9153C50.8268 11.2942 51.3974 10.6946 51.9359 10.0628C52.1012 9.87005 52.1812 9.60771 52.3039 9.37749C52.2825 9.36678 52.2612 9.35607 52.2399 9.34536C52.2452 8.8528 51.9253 8.47802 51.3921 8.36023ZM48.47 10.9569C48.1927 11.2514 48.0967 11.5887 48.1394 11.9849C48.1874 12.4239 48.2194 12.8629 48.262 13.3501C47.7502 13.1467 47.2916 12.97 46.833 12.7773C46.5024 12.6381 46.1825 12.6434 45.8519 12.7826C45.3933 12.9754 44.9348 13.152 44.4335 13.3501C44.4762 12.8415 44.5082 12.3811 44.5562 11.9206C44.5935 11.5512 44.4815 11.2407 44.2362 10.9676C43.9376 10.641 43.639 10.3091 43.3084 9.93965C43.7777 9.83257 44.1989 9.71479 44.6308 9.63448C45.0627 9.55417 45.3773 9.34001 45.5959 8.95988C45.8252 8.56904 46.0758 8.19426 46.3425 7.77129C46.6091 8.1889 46.8703 8.56904 47.0996 8.97058C47.3182 9.34536 47.6222 9.55417 48.0434 9.63448C48.4753 9.71479 48.9019 9.82722 49.3818 9.9343C49.0619 10.3037 48.7739 10.641 48.47 10.9569Z" fill="white"/>
<path d="M12.7708 11.8616C12.8988 12.0008 12.9574 12.14 12.9414 12.3381C12.8614 13.1358 12.7868 13.9336 12.7281 14.7367C12.7175 14.908 12.7388 15.1007 12.8081 15.256C13.0481 15.8075 13.56 15.9895 14.1678 15.7539C14.9517 15.4434 15.7302 15.1168 16.5193 14.817C16.6526 14.7688 16.8339 14.7688 16.9672 14.817C17.7777 15.1275 18.5776 15.4702 19.3934 15.786C20.1132 16.0645 20.8224 15.5291 20.7584 14.7581C20.6945 13.9389 20.6038 13.1251 20.5398 12.306C20.5292 12.1828 20.5771 12.0222 20.6571 11.9312C21.201 11.3101 21.7609 10.6998 22.3154 10.0841C22.8967 9.44159 22.6354 8.55819 21.7982 8.36545C20.9664 8.17806 20.1346 7.99067 19.3027 7.81399C19.1214 7.77651 19.0095 7.69085 18.9135 7.53558C18.4816 6.83956 18.0443 6.1489 17.6071 5.45289C17.4098 5.137 17.1272 4.96032 16.706 4.95497C16.322 4.92284 16.0554 5.16913 15.8421 5.50107C15.4102 6.17567 14.9783 6.85027 14.5624 7.53558C14.4664 7.69085 14.3545 7.77651 14.1732 7.81399C13.368 7.98531 12.5628 8.17806 11.7577 8.34403C11.3418 8.42969 11.0378 8.63314 10.9045 9.05075C10.7765 9.45766 10.8992 9.79496 11.1818 10.1001C11.7097 10.6837 12.2322 11.278 12.7708 11.8616ZM14.781 9.69323C15.3996 9.61292 15.8315 9.31845 16.1141 8.76164C16.2847 8.42969 16.5033 8.12987 16.7326 7.77116C16.9832 8.162 17.2232 8.51 17.4311 8.87943C17.6764 9.3131 18.0124 9.57544 18.5136 9.6504C18.9242 9.71465 19.3241 9.83243 19.7773 9.93416C19.516 10.2233 19.3081 10.4963 19.0575 10.7265C18.5936 11.1549 18.4496 11.6581 18.5562 12.2738C18.6149 12.6058 18.6202 12.9431 18.6575 13.3179C18.5616 13.2965 18.4976 13.2857 18.4389 13.259C18.0657 13.1091 17.6924 12.9752 17.3298 12.8092C16.9299 12.6272 16.5513 12.6326 16.1514 12.8146C15.7355 13.002 15.3036 13.1573 14.8344 13.3446C14.8717 12.8896 14.893 12.4827 14.9463 12.0811C15.0103 11.6153 14.8983 11.2245 14.5677 10.8872C14.2798 10.5981 14.0185 10.2822 13.7093 9.93951C14.0825 9.85385 14.4291 9.74142 14.781 9.69323Z" fill="white"/>
<path d="M2.97021 17.7458C3.54075 17.5209 4.10597 17.2854 4.68184 17.0712C4.80982 17.023 4.98045 17.023 5.10309 17.0712C5.71096 17.2961 6.30817 17.5423 6.91071 17.7833C7.26263 17.9225 7.58257 17.8743 7.89183 17.6601C8.29708 17.3764 8.30775 16.9641 8.27042 16.5358C8.22243 16.0272 8.16378 15.5239 8.13712 15.0153C8.13178 14.8761 8.19044 14.6994 8.28109 14.5977C8.65967 14.1586 9.05426 13.741 9.44884 13.3181C9.74744 12.9968 9.84875 12.6328 9.71012 12.2098C9.58214 11.819 9.27821 11.6423 8.89429 11.5673C8.30241 11.4442 7.71587 11.3103 7.124 11.1872C6.93737 11.1497 6.8094 11.0694 6.70808 10.9034C6.39882 10.3948 6.06822 9.89688 5.74295 9.3936C5.54566 9.08307 5.26306 8.92781 4.82048 8.9171C4.49522 8.89033 4.22327 9.09914 4.01532 9.41502C3.69539 9.90759 3.37012 10.4002 3.06619 10.8981C2.96487 11.064 2.8369 11.1497 2.65027 11.1872C2.04773 11.3103 1.45053 11.4388 0.853319 11.5727C0.000165763 11.7601 -0.282441 12.6488 0.304102 13.2913C0.704017 13.7303 1.11993 14.164 1.50918 14.6137C1.5945 14.7155 1.64782 14.8814 1.64249 15.0153C1.61049 15.5667 1.54651 16.1182 1.50385 16.6696C1.43986 17.5745 2.12238 18.0831 2.97021 17.7458ZM4.8898 11.7012C5.29505 12.5632 5.87626 13.12 6.88938 13.0878C6.61744 13.4626 6.30284 13.7517 6.19086 14.1051C6.07888 14.4638 6.1642 14.8921 6.1642 15.3097C5.73229 15.1812 5.31638 14.9564 4.90047 14.9564C4.47922 14.9564 4.05798 15.1812 3.56741 15.3258C3.81803 14.4424 3.6474 13.7143 2.86889 13.1467C3.88201 13.1146 4.50055 12.5953 4.8898 11.7012Z" fill="white"/>
<path d="M62.7389 13.3126C63.0482 12.9914 63.1442 12.6273 63.0109 12.2097C62.8882 11.8189 62.5843 11.6422 62.2004 11.5619C61.6192 11.4388 61.0379 11.2995 60.4567 11.1871C60.2381 11.1443 60.0995 11.0479 59.9822 10.8552C59.6996 10.3894 59.401 9.93964 59.1024 9.48455C58.6011 8.70823 57.78 8.69752 57.2787 9.46849C56.9641 9.9557 56.6602 10.4483 56.3349 10.9248C56.2656 11.0265 56.1323 11.1229 56.0097 11.155C55.4071 11.3049 54.7993 11.4334 54.1914 11.5565C53.7595 11.6422 53.4662 11.8778 53.3382 12.3007C53.2209 12.6916 53.3596 13.0182 53.6208 13.3019C54.0208 13.7356 54.4207 14.1586 54.8099 14.6029C54.8899 14.6993 54.9539 14.8546 54.9432 14.9724C54.9059 15.5667 54.8419 16.161 54.7939 16.7178C54.7619 17.5583 55.4231 18.0509 56.1803 17.7671C56.7775 17.5423 57.3694 17.2906 57.9666 17.0711C58.0946 17.0229 58.2652 17.0176 58.3878 17.0658C58.969 17.2799 59.5449 17.5209 60.1208 17.7511C60.942 18.0777 61.6298 17.5744 61.5658 16.6963C61.5232 16.1342 61.4539 15.5774 61.4219 15.0152C61.4165 14.876 61.4752 14.6993 61.5658 14.5922C61.9444 14.1532 62.339 13.7302 62.7389 13.3126ZM59.5129 15.3364C59.033 15.1919 58.6171 14.967 58.2012 14.9617C57.78 14.9617 57.3587 15.1812 56.9215 15.3097C56.9215 14.9135 57.0121 14.4905 56.8948 14.1318C56.7828 13.7731 56.4682 13.4786 56.2016 13.0985C57.1721 13.1038 57.7906 12.5952 58.1745 11.7011C58.5958 12.547 59.1663 13.136 60.1955 13.136C59.4489 13.7249 59.2463 14.4423 59.5129 15.3364Z" fill="white"/>
<path d="M30.5698 22.7518C30.5751 23.314 31.0017 23.753 31.5349 23.7583C32.0628 23.7637 32.5213 23.33 32.5267 22.7786C32.5373 21.7881 32.5373 20.8029 32.5267 19.8125C32.5213 19.261 32.0628 18.8059 31.5455 18.8059C31.0177 18.8059 30.5751 19.2663 30.5698 19.8392C30.5644 20.3211 30.5698 20.8029 30.5698 21.2848C30.5698 21.772 30.5644 22.2592 30.5698 22.7518Z" fill="white"/>
<path d="M38.9785 20.76C38.6053 20.5941 38.1787 20.669 37.8748 20.9742C37.1869 21.6595 36.5044 22.3448 35.8219 23.0355C35.4273 23.437 35.4166 24.0795 35.7899 24.4543C36.1685 24.8344 36.803 24.8344 37.2082 24.4382C37.8961 23.7582 38.5893 23.0783 39.2558 22.3716C39.4264 22.1895 39.5011 21.9165 39.6184 21.6863C39.5491 21.2633 39.3251 20.9153 38.9785 20.76Z" fill="white"/>
<path d="M25.8774 24.4223C26.0533 24.5883 26.3093 24.6686 26.5332 24.7864C26.9652 24.7489 27.3224 24.524 27.4824 24.1653C27.6477 23.7906 27.5784 23.3515 27.2851 23.0517C26.6079 22.361 25.92 21.6757 25.2322 20.9904C24.8216 20.5782 24.1817 20.5728 23.7978 20.9583C23.4299 21.3331 23.4352 21.9756 23.8351 22.3825C24.5123 23.0731 25.1842 23.7584 25.8774 24.4223Z" fill="white"/>
<path d="M6.8947 57.4777C6.35615 57.4617 5.89758 57.8953 5.88692 58.4361C5.87625 58.9822 6.2975 59.4266 6.84138 59.4373C7.3906 59.448 7.83317 59.0304 7.84917 58.4843C7.86517 57.9435 7.43859 57.4938 6.8947 57.4777Z" fill="white"/>
</svg>
